<?xml version="1.0" encoding="utf-8"?><svg xmlns="http://www.w3.org/2000/svg" xmlns:xlink="http://www.w3.org/1999/xlink" width="1920" height="457" preserveAspectRatio="xMidYMid" viewBox="0 0 1920 457" style="z-index:1;margin-right:-2px;display:block;background-repeat-y:initial;background-repeat-x:initial;animation-play-state:paused" ><g transform="" style="animation-play-state:paused" ><linearGradient id="lg-0.8811232711554804" x1="0" x2="1" y1="0" y2="0" style="animation-play-state:paused" ><stop stop-color="#1d0e0b" offset="0" style="animation-play-state:paused" ></stop>

  
<stop stop-color="#774023" offset="1" style="animation-play-state:paused" ></stop></linearGradient>
<path d="M 0 0 L 0 455.953 Q 240 397.085 480 364.198 T 960 259.396 T 1440 199.15 T 1920 187.969 L 1920 0 Z" fill="url(#lg-0.8811232711554804)" opacity="0.4" style="opacity:0.4;animation-play-state:paused" ></path>
<path d="M 0 0 L 0 404.336 Q 240 385.829 480 362.14 T 960 283.474 T 1440 198.197 T 1920 185.85 L 1920 0 Z" fill="url(#lg-0.8811232711554804)" opacity="0.4" style="opacity:0.4;animation-play-state:paused" ></path>
<path d="M 0 0 L 0 451.533 Q 240 384.862 480 342.925 T 960 303.924 T 1440 200.323 T 1920 172.514 L 1920 0 Z" fill="url(#lg-0.8811232711554804)" opacity="0.4" style="opacity:0.4;animation-play-state:paused" ></path>
<path d="M 0 0 L 0 388.103 Q 240 388.248 480 355.75 T 960 314.943 T 1440 198.176 T 1920 191.73 L 1920 0 Z" fill="url(#lg-0.8811232711554804)" opacity="0.4" style="opacity:0.4;animation-play-state:paused" ></path>
<path d="M 0 0 L 0 397.417 Q 240 373.138 480 344.629 T 960 246.633 T 1440 201.6 T 1920 155.35 L 1920 0 Z" fill="url(#lg-0.8811232711554804)" opacity="0.4" style="opacity:0.4;animation-play-state:paused" ></path></g></svg>