<?xml version="1.0" encoding="utf-8"?><svg xmlns="http://www.w3.org/2000/svg" xmlns:xlink="http://www.w3.org/1999/xlink" width="1920" height="457" preserveAspectRatio="xMidYMid" viewBox="0 0 1920 457" style="z-index:1;margin-right:-2px;display:block;background-repeat-y:initial;background-repeat-x:initial;animation-play-state:paused" ><g transform="" style="animation-play-state:paused" ><linearGradient id="lg-0.2214128557906918" x1="0" x2="1" y1="0" y2="0" style="animation-play-state:paused" ><stop stop-color="#2f2926" offset="0" style="animation-play-state:paused" ></stop>

  
<stop stop-color="#603417" offset="1" style="animation-play-state:paused" ></stop></linearGradient>
<path d="M 0 0 L 0 391.338 Q 240 328.066 480 285.064 T 960 253.118 T 1440 202.265 T 1920 137.594 L 1920 0 Z" fill="url(#lg-0.2214128557906918)" opacity="0.4" style="opacity:0.4;animation-play-state:paused" ></path>
<path d="M 0 0 L 0 440.342 Q 240 457.664 480 426.749 T 960 333.924 T 1440 216.051 T 1920 188.066 L 1920 0 Z" fill="url(#lg-0.2214128557906918)" opacity="0.4" style="opacity:0.4;animation-play-state:paused" ></path>
<path d="M 0 0 L 0 437.504 Q 240 397.36 480 364.871 T 960 262.502 T 1440 248.82 T 1920 78.9177 L 1920 0 Z" fill="url(#lg-0.2214128557906918)" opacity="0.4" style="opacity:0.4;animation-play-state:paused" ></path>
<path d="M 0 0 L 0 364.48 Q 240 417.738 480 390.679 T 960 251.366 T 1440 232.612 T 1920 92.9309 L 1920 0 Z" fill="url(#lg-0.2214128557906918)" opacity="0.4" style="opacity:0.4;animation-play-state:paused" ></path>
<path d="M 0 0 L 0 447.192 Q 240 377.18 480 348.459 T 960 318.841 T 1440 215.989 T 1920 141.837 L 1920 0 Z" fill="url(#lg-0.2214128557906918)" opacity="0.4" style="opacity:0.4;animation-play-state:paused" ></path></g></svg>