<?xml version="1.0" encoding="utf-8"?><svg xmlns="http://www.w3.org/2000/svg" xmlns:xlink="http://www.w3.org/1999/xlink" width="1920" height="969" preserveAspectRatio="xMidYMid" viewBox="0 0 1920 969" style="z-index:1;margin-right:-2px;display:block;background-repeat-y:initial;background-repeat-x:initial;background-color:rgb(241, 242, 243);animation-play-state:paused" ><g transform="" style="animation-play-state:paused" ><linearGradient id="lg-0.3173056202580109" x1="0" x2="1" y1="0" y2="0" style="animation-play-state:paused" ><stop stop-color="#1d0e0b" offset="0" style="animation-play-state:paused" ></stop>

  
<stop stop-color="#774023" offset="1" style="animation-play-state:paused" ></stop></linearGradient>
<path d="M 0 0 L 0 886.546 Q 192 743.618 384 725.309 T 768 795.418 T 1152 585.421 T 1536 548.077 T 1920 444.582 L 1920 0 Z" fill="url(#lg-0.3173056202580109)" opacity="0.4" style="opacity:0.4;animation-play-state:paused" ></path>
<path d="M 0 0 L 0 834.957 Q 192 842.63 384 808.811 T 768 680.492 T 1152 624.597 T 1536 475.599 T 1920 353.841 L 1920 0 Z" fill="url(#lg-0.3173056202580109)" opacity="0.4" style="opacity:0.4;animation-play-state:paused" ></path>
<path d="M 0 0 L 0 916.15 Q 192 768.328 384 738.714 T 768 712.481 T 1152 634.376 T 1536 525.111 T 1920 463.23 L 1920 0 Z" fill="url(#lg-0.3173056202580109)" opacity="0.4" style="opacity:0.4;animation-play-state:paused" ></path>
<path d="M 0 0 L 0 871.912 Q 192 814.791 384 783.677 T 768 763.909 T 1152 586.899 T 1536 524.693 T 1920 454.82 L 1920 0 Z" fill="url(#lg-0.3173056202580109)" opacity="0.4" style="opacity:0.4;animation-play-state:paused" ></path>
<path d="M 0 0 L 0 921.402 Q 192 759.482 384 730.479 T 768 717.797 T 1152 628.822 T 1536 595.447 T 1920 419.182 L 1920 0 Z" fill="url(#lg-0.3173056202580109)" opacity="0.4" style="opacity:0.4;animation-play-state:paused" ></path></g></svg>