<?xml version="1.0" encoding="utf-8"?><svg xmlns="http://www.w3.org/2000/svg" xmlns:xlink="http://www.w3.org/1999/xlink" width="1960" height="618" preserveAspectRatio="xMidYMid" viewBox="0 0 1960 618" style="z-index:1;margin-right:-2px;display:block;background-repeat-y:initial;background-repeat-x:initial;background-color:rgb(238, 177, 151);animation-play-state:paused" ><g transform="" style="animation-play-state:paused" ><defs style="animation-play-state:paused" ><linearGradient id="ldbk-photon-spqxkrvj1na-lg" x1="857" x2="1960" y1="0" y2="0" gradientUnits="userSpaceOnUse" style="animation-play-state:paused" ><stop stop-color="#985d4e" offset="0" style="animation-play-state:paused" ></stop>

    
<stop stop-color="#e0dcb8" offset="1" style="animation-play-state:paused" ></stop></linearGradient>

  
<mask id="ldbk-photon-spqxkrvj1na-mask" style="animation-play-state:paused" ><g style="animation-play-state:paused" ><path d="M2260 -0.5 L870.2103191670926 -0.5 A21 21 0 0 1 870.2103191670926 42.5 L2260 42.5" fill="#fff" transform="matrix(1,0,0,1,38.69955062866211,0)" style="transform:matrix(1, 0, 0, 1, 38.6996, 0);animation-play-state:paused" ></path>
<path d="M2035.8009250340842 -0.5 L2069.6018500681685 -0.5 A21 21 0 0 1 2069.6018500681685 42.5 L2035.8009250340842 42.5 A21 21 0 0 1 2035.8009250340842 -0.5" fill="#000" transform="matrix(1,0,0,1,0,0)" opacity="1" style="transform:matrix(1, 0, 0, 1, 0, 0);animation-play-state:paused" ></path>
<path d="M2260 41.5 L805.3139924290097 41.5 A21 21 0 0 0 805.3139924290097 84.5 L2260 84.5" fill="#fff" transform="matrix(1,0,0,1,-2.6326191425323486,0)" style="transform:matrix(1, 0, 0, 1, -2.63262, 0);animation-play-state:paused" ></path>
<path d="M942.6867327985308 41.5 L973.1820492605337 41.5 A21 21 0 0 1 973.1820492605337 84.5 L942.6867327985308 84.5 A21 21 0 0 1 942.6867327985308 41.5" fill="#fff" transform="matrix(1,0,0,1,0,0)" opacity="0.857143" style="transform:matrix(1, 0, 0, 1, 0, 0);opacity:0.857143;animation-play-state:paused" ></path>
<path d="M2260 83.5 L852.8245439334642 83.5 A21 21 0 0 1 852.8245439334642 126.5 L2260 126.5" fill="#fff" transform="matrix(1,0,0,1,2.013835906982422,0)" style="transform:matrix(1, 0, 0, 1, 2.01384, 0);animation-play-state:paused" ></path>
<path d="M2025.3722277512961 83.5 L2048.7444555025922 83.5 A21 21 0 0 1 2048.7444555025922 126.5 L2025.3722277512961 126.5 A21 21 0 0 1 2025.3722277512961 83.5" fill="#000" transform="matrix(1,0,0,1,-854.90478515625,0)" opacity="0.857143" style="transform:matrix(1, 0, 0, 1, -854.905, 0);opacity:0.857143;animation-play-state:paused" ></path>
<path d="M2260 125.5 L824.4268540969099 125.5 A21 21 0 0 0 824.4268540969099 168.5 L2260 168.5" fill="#fff" transform="matrix(1,0,0,1,-33.272911071777344,0)" style="transform:matrix(1, 0, 0, 1, -33.2729, 0);animation-play-state:paused" ></path>
<path d="M901.7165417293052 125.5 L927.5811621777442 125.5 A21 21 0 0 1 927.5811621777442 168.5 L901.7165417293052 168.5 A21 21 0 0 1 901.7165417293052 125.5" fill="#fff" transform="matrix(1,0,0,1,0,0)" opacity="1" style="transform:matrix(1, 0, 0, 1, 0, 0);animation-play-state:paused" ></path>
<path d="M2260 167.5 L840.8740978539181 167.5 A21 21 0 0 1 840.8740978539181 210.5 L2260 210.5" fill="#fff" transform="matrix(1,0,0,1,34.089839935302734,0)" style="transform:matrix(1, 0, 0, 1, 34.0898, 0);animation-play-state:paused" ></path>
<path d="M2031.9119197118594 167.5 L2061.8238394237187 167.5 A21 21 0 0 1 2061.8238394237187 210.5 L2031.9119197118594 210.5 A21 21 0 0 1 2031.9119197118594 167.5" fill="#000" transform="matrix(1,0,0,1,-1745.929931640625,0)" opacity="0.285714" style="transform:matrix(1, 0, 0, 1, -1745.93, 0);opacity:0.285714;animation-play-state:paused" ></path>
<path d="M2260 209.5 L782.8838656576359 209.5 A21 21 0 0 0 782.8838656576359 252.5 L2260 252.5" fill="#fff" transform="matrix(1,0,0,1,-33.90444564819336,0)" style="transform:matrix(1, 0, 0, 1, -33.9044, 0);animation-play-state:paused" ></path>
<path d="M926.4678646026359 209.5 L951.3839120590051 209.5 A21 21 0 0 1 951.3839120590051 252.5 L926.4678646026359 252.5 A21 21 0 0 1 926.4678646026359 209.5" fill="#fff" transform="matrix(1,0,0,1,0,0)" opacity="1" style="transform:matrix(1, 0, 0, 1, 0, 0);animation-play-state:paused" ></path>
<path d="M2260 251.5 L846.0886051411826 251.5 A21 21 0 0 1 846.0886051411826 294.5 L2260 294.5" fill="#fff" transform="matrix(1,0,0,1,19.150737762451172,0)" style="transform:matrix(1, 0, 0, 1, 19.1507, 0);animation-play-state:paused" ></path>
<path d="M2037.0854870519038 251.5 L2072.1709741038076 251.5 A21 21 0 0 1 2072.1709741038076 294.5 L2037.0854870519038 294.5 A21 21 0 0 1 2037.0854870519038 251.5" fill="#000" transform="matrix(1,0,0,1,-650.3177490234375,0)" opacity="0.857143" style="transform:matrix(1, 0, 0, 1, -650.318, 0);opacity:0.857143;animation-play-state:paused" ></path>
<path d="M2260 293.5 L829.8974552751208 293.5 A21 21 0 0 0 829.8974552751208 336.5 L2260 336.5" fill="#fff" transform="matrix(1,0,0,1,-2.8029937744140625,0)" style="transform:matrix(1, 0, 0, 1, -2.80299, 0);animation-play-state:paused" ></path>
<path d="M949.1742782866052 293.5 L984.0237014476542 293.5 A21 21 0 0 1 984.0237014476542 336.5 L949.1742782866052 336.5 A21 21 0 0 1 949.1742782866052 293.5" fill="#fff" transform="matrix(1,0,0,1,0,0)" opacity="1" style="transform:matrix(1, 0, 0, 1, 0, 0);animation-play-state:paused" ></path>
<path d="M2260 335.5 L859.0877674336216 335.5 A21 21 0 0 1 859.0877674336216 378.5 L2260 378.5" fill="#fff" transform="matrix(1,0,0,1,17.43876838684082,0)" style="transform:matrix(1, 0, 0, 1, 17.4388, 0);animation-play-state:paused" ></path>
<path d="M2032.250043884638 335.5 L2062.500087769276 335.5 A21 21 0 0 1 2062.500087769276 378.5 L2032.250043884638 378.5 A21 21 0 0 1 2032.250043884638 335.5" fill="#000" transform="matrix(1,0,0,1,-371.31695556640625,0)" opacity="1" style="transform:matrix(1, 0, 0, 1, -371.317, 0);animation-play-state:paused" ></path>
<path d="M2260 377.5 L839.6182885009789 377.5 A21 21 0 0 0 839.6182885009789 420.5 L2260 420.5" fill="#fff" transform="matrix(1,0,0,1,-2.9961657524108887,0)" style="transform:matrix(1, 0, 0, 1, -2.99617, 0);animation-play-state:paused" ></path>
<path d="M979.317331628888 377.5 L1006.5949536896178 377.5 A21 21 0 0 1 1006.5949536896178 420.5 L979.317331628888 420.5 A21 21 0 0 1 979.317331628888 377.5" fill="#fff" transform="matrix(1,0,0,1,0,0)" opacity="0.285714" style="transform:matrix(1, 0, 0, 1, 0, 0);opacity:0.285714;animation-play-state:paused" ></path>
<path d="M2260 419.5 L915.41405206287 419.5 A21 21 0 0 1 915.41405206287 462.5 L2260 462.5" fill="#fff" transform="matrix(1,0,0,1,37.1669807434082,0)" style="transform:matrix(1, 0, 0, 1, 37.167, 0);animation-play-state:paused" ></path>
<path d="M2029.3367150305614 419.5 L2056.673430061123 419.5 A21 21 0 0 1 2056.673430061123 462.5 L2029.3367150305614 462.5 A21 21 0 0 1 2029.3367150305614 419.5" fill="#000" transform="matrix(1,0,0,1,-0.001360526424832642,0)" opacity="1" style="transform:matrix(1, 0, 0, 1, -0.00136053, 0);animation-play-state:paused" ></path>
<path d="M2260 461.5 L849.5016736249459 461.5 A21 21 0 0 0 849.5016736249459 504.5 L2260 504.5" fill="#fff" transform="matrix(1,0,0,1,-25.19634437561035,0)" style="transform:matrix(1, 0, 0, 1, -25.1963, 0);animation-play-state:paused" ></path>
<path d="M1011.4970734675499 461.5 L1023.4366382363977 461.5 A21 21 0 0 1 1023.4366382363977 504.5 L1011.4970734675499 504.5 A21 21 0 0 1 1011.4970734675499 461.5" fill="#fff" transform="matrix(1,0,0,1,0,0)" opacity="0.857143" style="transform:matrix(1, 0, 0, 1, 0, 0);opacity:0.857143;animation-play-state:paused" ></path>
<path d="M2260 503.5 L889.1297272942102 503.5 A21 21 0 0 1 889.1297272942102 546.5 L2260 546.5" fill="#fff" transform="matrix(1,0,0,1,2.942516326904297,0)" style="transform:matrix(1, 0, 0, 1, 2.94252, 0);animation-play-state:paused" ></path>
<path d="M2025.8203769632198 503.5 L2049.6407539264396 503.5 A21 21 0 0 1 2049.6407539264396 546.5 L2025.8203769632198 546.5 A21 21 0 0 1 2025.8203769632198 503.5" fill="#000" transform="matrix(1,0,0,1,-1959.4066162109375,0)" opacity="0.285714" style="transform:matrix(1, 0, 0, 1, -1959.41, 0);opacity:0.285714;animation-play-state:paused" ></path>
<path d="M2260 545.5 L852.0421946573838 545.5 A21 21 0 0 0 852.0421946573838 588.5 L2260 588.5" fill="#fff" transform="matrix(1,0,0,1,-19.4862060546875,0)" style="transform:matrix(1, 0, 0, 1, -19.4862, 0);animation-play-state:paused" ></path>
<path d="M951.2486316634322 545.5 L989.170540755023 545.5 A21 21 0 0 1 989.170540755023 588.5 L951.2486316634322 588.5 A21 21 0 0 1 951.2486316634322 545.5" fill="#fff" transform="matrix(1,0,0,1,0,0)" opacity="0.571429" style="transform:matrix(1, 0, 0, 1, 0, 0);opacity:0.571429;animation-play-state:paused" ></path>
<path d="M2260 587.5 L875.2015790278524 587.5 A21 21 0 0 1 875.2015790278524 630.5 L2260 630.5" fill="#fff" transform="matrix(1,0,0,1,2.102651596069336,0)" style="transform:matrix(1, 0, 0, 1, 2.10265, 0);animation-play-state:paused" ></path>
<path d="M2025.5332932273668 587.5 L2049.0665864547336 587.5 A21 21 0 0 1 2049.0665864547336 630.5 L2025.5332932273668 630.5 A21 21 0 0 1 2025.5332932273668 587.5" fill="#000" transform="matrix(1,0,0,1,-1565.5947265625,0)" opacity="0.285714" style="transform:matrix(1, 0, 0, 1, -1565.59, 0);opacity:0.285714;animation-play-state:paused" ></path></g></mask></defs>


<rect x="0" y="0" width="1960" height="618" fill="url(#ldbk-photon-spqxkrvj1na-lg)" mask="url(#ldbk-photon-spqxkrvj1na-mask)" style="animation-play-state:paused" ></rect></g></svg>